<svg xmlns="http://www.w3.org/2000/svg" viewBox="-599.5 -122 23 21.376">
    <g id="distribution" transform="translate(-607 -132.5)">
        <path id="Path_2459" data-name="Path 2459"
              d="M12.371,43.935a2.435,2.435,0,1,0-2.435,2.435A2.435,2.435,0,0,0,12.371,43.935ZM9.935,45.559a1.624,1.624,0,1,1,1.624-1.624A1.625,1.625,0,0,1,9.935,45.559Z"
              transform="translate(0 -22.612)"/>
        <path id="Path_2460" data-name="Path 2460"
              d="M57.935,17.371A2.435,2.435,0,1,0,55.5,14.935,2.435,2.435,0,0,0,57.935,17.371Zm0-4.059a1.624,1.624,0,1,1-1.624,1.624A1.625,1.625,0,0,1,57.935,13.312Z"
              transform="translate(-35.012 -1.459)"/>
        <path id="Path_2461" data-name="Path 2461"
              d="M58.935,68.5a2.435,2.435,0,1,0,2.435,2.435A2.435,2.435,0,0,0,58.935,68.5Zm0,4.059a1.624,1.624,0,1,1,1.624-1.624A1.625,1.625,0,0,1,58.935,72.559Z"
              transform="translate(-35.741 -42.306)"/>
        <path id="Path_2462" data-name="Path 2462"
              d="M37.006,18.076a2.975,2.975,0,0,0-2.9,2.3H31.8A3.78,3.78,0,0,0,26.523,17.6L25.407,15.74a3.012,3.012,0,1,0-1.205.621l1.2,2.007a3.786,3.786,0,0,0,.282,5.624l-1.215,2.025a2.975,2.975,0,1,0,1.205.621l1.2-1.994A3.779,3.779,0,0,0,31.8,21.729H34.11a2.975,2.975,0,1,0,2.9-3.653Zm-15.153-4.6A1.624,1.624,0,1,1,23.476,15.1,1.625,1.625,0,0,1,21.853,13.476Zm1.894,17.047A1.624,1.624,0,1,1,25.371,28.9,1.625,1.625,0,0,1,23.747,30.524Zm1.894-9.471a2.435,2.435,0,1,1,4.831.429l-.33-.33a.2.2,0,1,0-.287.287l.491.491a2.438,2.438,0,0,1-.506.8L28.8,21.685a.2.2,0,0,0-.287.287L29.535,23a2.428,2.428,0,0,1-.886.419l-.657-.657a.2.2,0,1,0-.287.287l.438.438c-.022,0-.044,0-.067,0A2.438,2.438,0,0,1,25.641,21.053Zm11.365,1.624a1.624,1.624,0,1,1,1.624-1.624A1.625,1.625,0,0,1,37.006,22.676Z"
              transform="translate(-9.482 0)"/>
    </g>
</svg>
