<svg xmlns="http://www.w3.org/2000/svg" viewBox="-794.995 -126.5 23 23">
    <defs>
        <style>
            .cls-1 {
            fill: #202020;
            }

            .cls-2 {
            fill: #fff;
            }
        </style>
    </defs>
    <g id="kliniks" transform="translate(-1490 -501.5)">
        <g id="Group_1955" data-name="Group 1955" transform="translate(695.005 375)">
            <path id="Path_735" data-name="Path 735" class="cls-1"
                  d="M22.891,10.69,11.765.121a.389.389,0,0,0-.512,0L.128,10.69A.315.315,0,0,0,0,10.946V22.667a.391.391,0,0,0,.1.256.328.328,0,0,0,.256.1H22.635a.35.35,0,0,0,.358-.358V10.946A.243.243,0,0,0,22.891,10.69ZM.742,11.1,11.509.914,22.277,11.125V22.334H.742Z"
                  transform="translate(0 -0.025)"/>
            <path id="Path_736" data-name="Path 736" class="cls-2"
                  d="M30.7,42.809a.35.35,0,0,0,.358.358h1.816v1.817a.391.391,0,0,0,.1.256.328.328,0,0,0,.256.1h2.2a.391.391,0,0,0,.256-.1.329.329,0,0,0,.1-.256V43.193h1.816a.35.35,0,0,0,.358-.358v-2.2a.391.391,0,0,0-.1-.256.328.328,0,0,0-.256-.1H35.79V38.458a.35.35,0,0,0-.358-.358h-2.2a.35.35,0,0,0-.358.358v1.817H31.058a.35.35,0,0,0-.358.358m6.573,1.817H35.457a.35.35,0,0,0-.358.358v1.817H33.641V42.809a.35.35,0,0,0-.358-.358H31.467V40.992h1.816a.35.35,0,0,0,.358-.358V38.817H35.1v1.817a.35.35,0,0,0,.358.358h1.816Z"
                  transform="translate(-22.848 -28.356)"/>
        </g>
        <path id="Path_737" data-name="Path 737" class="cls-1"
              d="M22.8,33.5V44.76H34.054V33.5Zm9.694,6.833H29.629V43.2H27.174V40.333H24.309V37.876h2.865V35.01h2.455v2.866h2.865Z"
              transform="translate(678.036 350.067)"/>
    </g>
</svg>
