<svg xmlns="http://www.w3.org/2000/svg" viewBox="-398.903 -122 23 21.796">
    <g id="vrachi" transform="translate(-1510 -497)">
        <g id="surgeon-wearing-uniform" transform="translate(1119.726 375)">
            <path id="Path_746" data-name="Path 746"
                  d="M26.115,17.418H27.7v.92H26.115v1.528H25.2V18.337H23.721v-.92H25.2V15.89h.919ZM17.877,6.177A4.194,4.194,0,0,1,19.326,3.01c-.006-.077-.012-.153-.012-.232a2.778,2.778,0,1,1,5.556,0c0,.078-.005.155-.012.232a4.211,4.211,0,1,1-6.981,3.167Zm2.011-3.4a2.2,2.2,0,1,0,2.2-2.2A2.206,2.206,0,0,0,19.889,2.778Zm9.389,13.3v4.375h-.03l-.282.143a15.078,15.078,0,0,1-6.408,1.2,24.563,24.563,0,0,1-7.337-1.183l-.3-.094-.011-.068V16.076a5.4,5.4,0,0,1,5.4-5.4H23.88A5.4,5.4,0,0,1,29.277,16.076Zm-.575,0a4.827,4.827,0,0,0-4.822-4.822h-.424c-.855.576-1.17,2.9-1.221,3.876l-.287-.007A5.827,5.827,0,0,0,20.6,11.255h-.3a4.828,4.828,0,0,0-4.822,4.822v3.8l0,.134c8.141,2.543,13.162.045,13.213.019l.009-.153ZM22.092,3.64a.862.862,0,1,0-.862-.862A.862.862,0,0,0,22.092,3.64Z"
                  transform="translate(-14.907)"/>
        </g>
        <g id="surgeon-wearing-uniform-2" data-name="surgeon-wearing-uniform" transform="translate(1111.097 375.396)">
            <path id="Path_747" data-name="Path 747"
                  d="M22.462,11.74h1.066v.62H22.462v1.03h-.619v-1.03h-.995v-.62h.995V10.71h.619ZM16.909,4.163a2.827,2.827,0,0,1,.976-2.135c0-.052-.008-.1-.008-.156a1.872,1.872,0,1,1,3.745,0c0,.053,0,.1-.008.156a2.838,2.838,0,1,1-4.705,2.135Zm1.356-2.291A1.485,1.485,0,1,0,19.75.387,1.487,1.487,0,0,0,18.265,1.872Zm6.328,8.963v2.949h-.02l-.19.1a10.162,10.162,0,0,1-4.319.811,16.556,16.556,0,0,1-4.945-.8l-.2-.064-.008-.046V10.835A3.642,3.642,0,0,1,18.545,7.2h2.41A3.642,3.642,0,0,1,24.593,10.835Zm-.387,0a3.254,3.254,0,0,0-3.25-3.25H20.67c-.576.388-.789,1.957-.823,2.613l-.194,0a3.927,3.927,0,0,0-.909-2.608h-.2a3.254,3.254,0,0,0-3.25,3.25v2.652c5.487,1.714,8.872.031,8.906.013l.006-.1ZM19.75,2.453a.581.581,0,1,0-.581-.581A.581.581,0,0,0,19.75,2.453Z"
                  transform="translate(-14.907 0)"/>
        </g>
    </g>
</svg>
